<svg xmlns="http://www.w3.org/2000/svg" width="488pt" height="488pt" viewBox="0 -52 488.001 488"><path fill="#f4b844" d="m480.308594 304.410156v31.199219c.003906 22.410156-18.160156 40.574219-40.566406 40.570313h-391.480469c-22.410157.003906-40.574219-18.160157-40.570313-40.570313v-31.199219h176.789063l8.238281 8.941406c7.683594 8.332032 18.5 13.070313 29.832031 13.070313h42.898438c11.332031 0 22.148437-4.738281 29.832031-13.070313l8.238281-8.941406zm0 0"/><path fill="#00acea" d="m458.878906 304.359375v.050781h-155.359375l-8.238281 8.941406c-7.683594 8.332032-18.5 13.070313-29.832031 13.070313h-42.898438c-11.332031 0-22.148437-4.738281-29.832031-13.070313l-8.238281-8.941406h-155.359375v-256.019531c0-22.40625 18.164062-40.570313 40.570312-40.570313h348.617188c22.40625 0 40.570312 18.164063 40.570312 40.570313zm-40.039062-37.300781v-216.328125h-349.679688v216.328125zm0 0"/><path fill="#00efd1" d="m418.839844 50.730469v216.328125h-349.679688v-216.328125zm-83.488282 117.921875c0-3.601563-1.601562-7.203125-4.800781-7.203125h-4.300781v-7c0-3.296875-3.898438-4.699219-7.800781-4.699219-3.898438 0-7.800781 1.402344-7.800781 4.699219v7h-8.597657l17.699219-35.5c.292969-.589844.464844-1.238281.5-1.898438 0-3.601562-5.101562-5.898437-7.800781-5.898437-2.765625-.066406-5.308594 1.5-6.5 4l-23.097657 45.296875c-.507812.921875-.785156 1.949219-.800781 3 0 3.5 2.300781 5.402343 5.199219 5.402343h23.398438v10.597657c0 3.203125 3.902343 4.800781 7.800781 4.800781 3.902343 0 7.800781-1.597656 7.800781-4.800781v-10.597657h4.300781c2.398438 0 4.800781-3.601562 4.800781-7.199218zm-66.703124-.402344v-26.5c0-17.199219-10.796876-23.597656-24.597657-23.597656s-24.5 6.398437-24.5 23.597656v26.5c0 17.199219 10.699219 23.601562 24.5 23.601562s24.597657-6.402343 24.597657-23.601562zm-62.699219.402344c0-3.601563-1.597657-7.203125-4.800781-7.203125h-4.296876v-7c0-3.296875-3.902343-4.699219-7.800781-4.699219-3.902343 0-7.800781 1.402344-7.800781 4.699219v7h-8.601562l17.703124-35.5c.292969-.589844.460938-1.238281.5-1.898438 0-3.601562-5.101562-5.898437-7.800781-5.898437-2.765625-.066406-5.308593 1.5-6.5 4l-23.101562 45.296875c-.507813.921875-.78125 1.949219-.800781 3 0 3.5 2.300781 5.402343 5.203124 5.402343h23.398438v10.597657c0 3.203125 3.898438 4.800781 7.800781 4.800781 3.898438 0 7.800781-1.597656 7.800781-4.800781v-10.597657h4.296876c2.402343 0 4.800781-3.601562 4.800781-7.199218zm0 0"/><path fill="#00efd1" d="m253.050781 141.75v26.5c0 6.902344-3.402343 10-9 10-5.601562 0-8.902343-3.097656-8.902343-10v-26.5c0-6.898438 3.300781-10 8.902343-10 5.597657 0 9 3.101562 9 10zm0 0"/><g fill="#083863"><path d="m427 267v-216c0-4.417969-3.582031-8-8-8h-350c-4.417969 0-8 3.582031-8 8v216c0 4.417969 3.582031 8 8 8h350c4.417969 0 8-3.582031 8-8zm-16-8h-334v-200h334zm0 0"/><path d="m480.308594 296h-13.308594v-247.609375c-.101562-26.800781-21.890625-48.453125-48.691406-48.390625h-348.617188c-26.800781-.0625-48.589844 21.589844-48.691406 48.390625v247.609375h-13.308594c-4.417968 0-7.691406 3.992188-7.691406 8.410156v31.199219c-.046875 12.828125 5.015625 25.144531 14.074219 34.226563 9.058593 9.082031 21.359375 14.179687 34.1875 14.164062h391.480469c12.824218.015625 25.128906-5.082031 34.183593-14.164062 9.058594-9.082032 14.125-21.398438 14.074219-34.226563v-31.199219c0-4.417968-3.273438-8.410156-7.691406-8.410156zm-443.308594-247.609375c.09375-17.96875 14.722656-32.464844 32.691406-32.390625h348.617188c17.96875-.074219 32.601562 14.421875 32.691406 32.390625v247.609375h-147.480469c-2.261719.078125-4.386719 1.085938-5.882812 2.785156l-8.238281 8.832032c-6.183594 6.648437-14.867188 10.414062-23.949219 10.382812h-42.898438c-9.070312.070312-17.753906-3.660156-23.949219-10.28125l-8.238281-9.039062c-1.507812-1.671876-3.636719-2.640626-5.882812-2.679688h-147.480469zm435 287.21875c.054688 8.585937-3.324219 16.835937-9.382812 22.917969-6.054688 6.082031-14.292969 9.492187-22.875 9.472656h-391.480469c-8.585938.019531-16.820313-3.390625-22.878907-9.472656-6.058593-6.082032-9.4375-14.332032-9.382812-22.917969v-23.609375h164.972656l5.867188 6.359375c9.203125 9.957031 22.148437 15.628906 35.710937 15.640625h42.898438c13.5625-.011719 26.507812-5.683594 35.714843-15.640625l5.863282-6.359375h164.972656zm0 0"/><path d="m157.851562 176h23.148438v10.449219c0 3.640625 4 5.300781 8 5.300781s8-1.660156 8-5.300781v-10.449219h4.148438c2.675781 0 5.300781-3.613281 5.300781-7.5 0-3.707031-1.65625-7.5-5.300781-7.5h-4.148438v-6.550781c0-3.835938-4.171875-5.199219-8-5.199219s-8 1.363281-8 5.199219v6.550781h-7.542969l17.351563-34.828125c.320312-.660156.503906-1.378906.542968-2.109375 0-3.96875-5.375-6.40625-8.300781-6.40625-2.953125-.0625-5.667969 1.605469-6.945312 4.269531l-23.09375 45.285157c-.542969.933593-.839844 1.988281-.863281 3.066406-.109376 1.542968.453124 3.0625 1.546874 4.160156s2.609376 1.667969 4.15625 1.5625zm0 0"/><path d="m243.949219 192.351562c16.1875 0 25.050781-8.558593 25.050781-24.101562v-26.5c0-15.539062-8.863281-24.097656-25.050781-24.097656-16.121094 0-24.949219 8.558594-24.949219 24.097656v26.5c0 15.542969 8.828125 24.101562 24.949219 24.101562zm-7.949219-24.101562v-26.5c0-6.300781 2.875-9.5 8.449219-9.5 5.640625 0 8.550781 3.199219 8.550781 9.5v26.5c0 6.300781-2.910156 9.5-8.550781 9.5-5.574219 0-8.449219-3.195312-8.449219-9.5zm0 0"/><path d="m287.25 176h22.75v10.449219c0 3.640625 4.5 5.300781 8.5 5.300781s8.5-1.660156 8.5-5.300781v-10.449219h3.550781c2.675781 0 5.300781-3.613281 5.300781-7.5 0-3.707031-1.660156-7.5-5.300781-7.5h-3.550781v-6.550781c0-3.835938-4.671875-5.199219-8.5-5.199219s-8.5 1.363281-8.5 5.199219v6.550781h-7.140625l17.351563-34.828125c.320312-.660156.503906-1.375.539062-2.109375 0-3.96875-5.375-6.40625-8.300781-6.40625-2.953125-.0625-5.667969 1.605469-6.945313 4.269531l-23.09375 45.285157c-.542968.933593-.839844 1.988281-.859375 3.066406-.109375 1.542968.453125 3.0625 1.546875 4.160156s2.605469 1.667969 4.152344 1.5625zm0 0"/></g></svg>