<svg id="Layer_1" enable-background="new 0 0 256 256" height="512" viewBox="0 0 256 256" width="512" xmlns="http://www.w3.org/2000/svg"><g><path d="m5.17 221.885 14.83-12.82-14.83-12.82h120.12c29.8 0 54.06-24.25 54.06-54.05 0-29.81-24.26-54.07-54.06-54.07-29.81 0-54.07 24.26-54.07 54.07 0 10.42 2.96 20.15 8.09 28.41h-28.49c-3.38-8.82-5.24-18.41-5.24-28.41 0-43.33 35.07-79.71 79.71-79.71 43.61 0 79.7 35.46 79.7 79.71 0 20.84-8.05 39.83-21.2 54.05h31.21v-20.04l35.83 45.68z" fill="#13bf6d"/><path d="m149.423 130.413-11.981-2.784-6.239-10.443c-2.658-4.441-9.095-4.441-11.753 0l-6.239 10.443-11.981 2.784c-5.064 1.183-7.02 7.343-3.565 11.224l8.053 9.039-1.144 12.281c-.479 5.205 4.812 9.001 9.576 6.894 7.626-3.354 5.082-2.234 11.177-4.922 6.096 2.689 3.549 1.567 11.177 4.922 4.764 2.107 10.055-1.689 9.576-6.894l-1.144-12.281 8.053-9.039c3.454-3.881 1.498-10.041-3.566-11.224z" fill="#f0c020"/><path d="m136.921 164.027-2.745-1.21c-1.263-.558-1.836-2.033-1.279-3.297.558-1.263 2.032-1.836 3.297-1.279l2.745 1.21c1.263.558 1.836 2.033 1.279 3.297-.557 1.26-2.03 1.837-3.297 1.279zm-24.199.212c-1.472 0-2.626-1.267-2.49-2.731l1.183-12.705-8.352-9.374c-1.264-1.42-.54-3.67 1.301-4.099l12.369-2.874 6.447-10.791c.708-1.185 2.242-1.57 3.428-.864 1.185.708 1.572 2.243.864 3.429l-6.992 11.703c-.348.583-.918.999-1.58 1.153l-9.302 2.161 6.274 7.042c.461.518.687 1.204.623 1.895l-.89 9.553 8.713-3.839c.642-.283 1.374-.283 2.015 0l.708.312c1.264.557 1.837 2.032 1.281 3.296-.509 1.154-1.786 1.728-2.965 1.399-12.084 5.323-11.779 5.334-12.635 5.334z" fill="#f9e5af"/><path d="m183.787 196.243s-21.962 25.641-50.488 25.641h35.701c10.35 0 31.75-25.641 31.75-25.641z" fill="#139c6d"/><path d="m225.667 211.564h-27.334c-1.381 0-2.5-1.119-2.5-2.5s1.119-2.5 2.5-2.5h27.334c1.381 0 2.5 1.119 2.5 2.5s-1.119 2.5-2.5 2.5z" fill="#76ffba"/><path d="m125.333 211.564h-76.533c-1.381 0-2.5-1.119-2.5-2.5s1.119-2.5 2.5-2.5h76.533c36.404 0 66.021-29.617 66.021-66.022 0-36.404-29.617-66.021-66.021-66.021-36.405 0-66.022 29.617-66.022 66.021 0 7.271 1.174 14.417 3.489 21.236.444 1.308-.256 2.728-1.563 3.171-1.312.447-2.727-.257-3.171-1.563-2.491-7.338-3.754-15.024-3.754-22.844 0-39.161 31.86-71.021 71.022-71.021 39.161 0 71.021 31.86 71.021 71.021-.001 39.162-31.861 71.022-71.022 71.022zm-86.533 0h-8.05c-1.381 0-2.5-1.119-2.5-2.5s1.119-2.5 2.5-2.5h8.05c1.381 0 2.5 1.119 2.5 2.5s-1.119 2.5-2.5 2.5z" fill="#76ffba"/><g fill="#f0c020"><path d="m33.256 164.069c-4.34-1.434-8.822-2.688-11.339-13.528-2.318 9.984-6.031 11.774-11.339 13.528 8.657 2.86 9.963 7.597 11.339 13.528 2.372-10.224 6.296-11.862 11.339-13.528z"/><path d="m205.194 50.285c-4.34-1.434-8.822-2.688-11.339-13.528-2.318 9.984-6.031 11.774-11.339 13.528 8.657 2.86 9.963 7.597 11.339 13.528 2.372-10.224 6.295-11.862 11.339-13.528z"/><path d="m233.004 82.276c-4.34-1.434-8.822-2.688-11.339-13.528-2.318 9.984-6.031 11.774-11.339 13.528 8.657 2.86 9.963 7.597 11.339 13.528 2.373-10.224 6.296-11.862 11.339-13.528z"/></g><path d="m149.99 127.979-10.95-2.55-5.69-9.53c-3.652-6.087-12.459-6.02-16.05 0l-5.69 9.53-10.95 2.55c-7.068 1.652-9.506 10.132-4.86 15.32l7.33 8.229-1.05 11.2c-.518 7.433 6.761 12.18 13.08 9.41 0 0 10.02-4.414 10.17-4.479 5.72 2.527 7.105 3.133 10.17 4.479 6.364 2.785 13.609-2.056 13.069-9.399l-1.05-11.211 7.34-8.229c4.692-5.272 2.057-13.708-4.869-15.32zm1.13 11.991-8.051 9.04c-.46.52-.689 1.21-.619 1.9l1.14 12.279c.304 3.133-2.973 5.761-6.08 4.37-2.457-1.077-8.799-3.856-11.17-4.92-.69-.292-1.406-.268-2.02 0-11.039 4.86-7.943 3.513-11.18 4.92-3.073 1.348-6.337-1.116-6.08-4.37l1.15-12.279c.06-.69-.17-1.381-.63-1.9l-8.05-9.04c-2.173-2.442-.988-6.371 2.27-7.12l11.98-2.79c.65-.149 1.23-.569 1.58-1.149l6.24-10.44c1.689-2.815 5.734-2.841 7.46 0l6.23 10.44c.35.58.93 1 1.58 1.149l11.979 2.79c3.23.742 4.474 4.643 2.271 7.12z"/><path d="m19.335 149.941c-2.122 9.143-5.254 10.179-9.588 11.611-2.416.798-2.421 4.233 0 5.033 7.466 2.467 8.357 6.303 9.588 11.61.633 2.728 4.533 2.722 5.164 0 2.121-9.143 5.253-10.178 9.588-11.61 2.416-.798 2.421-4.233 0-5.033-4.169-1.372-7.42-2.269-9.588-11.61-.634-2.728-4.53-2.721-5.164-.001zm2.593 8.548c1.437 2.736 3.111 4.447 4.835 5.608-1.813 1.204-3.423 2.868-4.783 5.413-1.082-1.952-2.643-3.798-5.051-5.376 1.903-1.233 3.587-2.953 4.999-5.645z"/><path d="m206.025 47.768c-4.169-1.372-7.419-2.268-9.588-11.61-.635-2.728-4.531-2.721-5.164 0-2.122 9.143-5.254 10.178-9.588 11.61-2.416.798-2.421 4.233 0 5.033 7.466 2.467 8.357 6.303 9.588 11.611.633 2.728 4.533 2.721 5.164 0 2.121-9.144 5.253-10.178 9.588-11.611 2.415-.798 2.421-4.233 0-5.033zm-12.108 7.959c-1.082-1.952-2.643-3.798-5.051-5.376 1.904-1.232 3.587-2.953 4.999-5.645 1.437 2.736 3.111 4.447 4.835 5.608-1.813 1.204-3.423 2.867-4.783 5.413z"/><path d="m209.496 84.792c7.466 2.468 8.357 6.303 9.588 11.611.633 2.728 4.533 2.721 5.164 0 2.121-9.143 5.253-10.178 9.588-11.611 2.416-.798 2.421-4.233 0-5.033-4.169-1.372-7.419-2.268-9.588-11.61-.635-2.728-4.531-2.72-5.164 0-2.122 9.143-5.254 10.178-9.588 11.611-2.416.798-2.421 4.232 0 5.032zm12.18-8.095c1.437 2.736 3.111 4.446 4.835 5.607-1.813 1.204-3.423 2.868-4.783 5.413-1.082-1.952-2.643-3.798-5.051-5.376 1.904-1.233 3.587-2.953 4.999-5.644z"/><path d="m89.07 224.38c1.38 0 2.5-1.12 2.5-2.5 0-1.37-1.12-2.49-2.5-2.49s-2.5 1.12-2.5 2.49c0 1.38 1.12 2.5 2.5 2.5z"/><path d="m206.78 152.99c.47-3.561.71-7.19.71-10.801 0-45.403-36.967-82.199-82.21-82.199-45.935 0-82.2 37.385-82.2 82.199 0 10.09 1.82 19.95 5.4 29.311.465 1.206 1.857 1.962 3.23 1.439 1.29-.489 1.93-1.939 1.45-3.22 0 0 0-.01-.01-.01-3.36-8.78-5.07-18.04-5.07-27.521 0-41.857 33.802-77.188 77.21-77.21 42.229 0 77.2 34.286 77.2 77.21 0 3.4-.221 6.811-.66 10.141-.181 1.37.779 2.63 2.149 2.81s2.621-.799 2.801-2.149z"/><path d="m79.07 224.38c1.38 0 2.5-1.12 2.5-2.5 0-1.37-1.12-2.49-2.5-2.49h-73.9c-1.38 0-2.5 1.12-2.5 2.49 0 1.38 1.12 2.5 2.5 2.5z"/><path d="m203.01 160.05c-1.32-.35-2.71.47-3.05 1.78-.36 1.33.439 2.699 1.78 3.06 1.466.348 2.722-.546 3.05-1.78.35-1.34-.45-2.711-1.78-3.06z"/><path d="m252.8 220.34-35.83-45.68c-1.46-1.842-4.47-.842-4.47 1.55v17.53h-23.25c5.12-6.33 9.25-13.351 12.29-20.851.523-1.298-.135-2.768-1.38-3.25-1.179-.509-2.705.014-3.261 1.38v.01c-10.891 26.861-38.832 48.355-63.601 48.355-.017 0-.032.004-.048.005h-34.18c-1.38 0-2.5 1.12-2.5 2.49 0 1.38 1.12 2.5 2.5 2.5h34.181c.017 0 .032.005.048.005.061 0 .121-.005.183-.005h117.348c2.076.001 3.247-2.388 1.97-4.039zm-96.62-.95c15.089-6.514 25.803-17.452 28.729-20.649h30.091c1.381 0 2.5-1.108 2.5-2.5v-12.801l28.189 35.95z"/><path d="m126.22 90.63h.05c1.35 0 2.47-1.101 2.5-2.45.02-1.391-1.088-2.53-2.46-2.55-33.782 0-57.58 26.586-57.59 56.57 0 10.529 2.93 20.81 8.47 29.72.704 1.158 2.233 1.535 3.44.81 1.11-.681 1.57-2.223.8-3.439-5.04-8.13-7.71-17.5-7.71-27.09 0-28.713 23.496-52.005 52.5-51.571z"/><path d="m2.67 196.25c0 1.37 1.12 2.49 2.5 2.49h120.12c31.18 0 56.55-25.37 56.56-56.54 0-23.283-14.219-43.778-35.16-52.37-1.26-.521-2.76.12-3.27 1.359-.521 1.28.09 2.74 1.37 3.271 19.479 7.99 32.06 26.729 32.06 47.74 0 28.506-23.183 51.55-51.56 51.55h-120.12c-1.38 0-2.5 1.12-2.5 2.5z"/><path d="m135.68 91.68c1.506.268 2.703-.708 2.96-1.95.271-1.35-.6-2.67-1.95-2.95-1.34-.27-2.68.62-2.949 1.95-.289 1.335.578 2.657 1.939 2.95z"/></g></svg>