<svg id="Capa_1" enable-background="new 0 0 512 512" height="512" viewBox="0 0 512 512" width="512" xmlns="http://www.w3.org/2000/svg"><g><g><g><g><g><g><g><path d="m474.049 460.17h-418.168c-19.826 0-35.898-16.072-35.898-35.898v-336.589h454.065c9.923 0 17.968 8.045 17.968 17.968v336.551c.001 9.924-8.044 17.968-17.967 17.968z" fill="#f2f9ff"/><path d="m474.049 87.683h-47.723v322.401c0 10.135-8.216 18.351-18.351 18.351h-352.094c-19.826 0-35.898-16.072-35.898-35.898v31.735c0 19.826 16.072 35.898 35.898 35.898h418.167c9.923 0 17.968-8.044 17.968-17.968v-336.551c.001-9.923-8.044-17.968-17.967-17.968z" fill="#e2f4ff"/><g><path d="m19.983 87.683v336.58c0-19.801 16.052-35.854 35.854-35.854h28.769c6.885 0 12.466-5.581 12.466-12.466v-311.647c0-6.885-5.581-12.466-12.466-12.466h-28.769c-19.801 0-35.854 16.052-35.854 35.853z" fill="#4a80aa"/></g></g></g></g></g><g><g><path d="m363.815 96.186v332.25c0 4.949.785 9.868 2.325 14.571l17.399 53.135c3.649 11.144 19.414 11.144 23.063 0l17.399-53.135c1.54-4.704 2.325-9.622 2.325-14.571v-332.25z" fill="#e28086"/><path d="m426.326 79.183v-40.428c0-17.262-13.994-31.255-31.255-31.255-17.262 0-31.255 13.993-31.255 31.255v40.427h62.51z" fill="#5b8eb7"/></g><g><path d="m363.815 428.436h62.511c0 4.949-.785 9.868-2.325 14.571l-17.399 53.135c-3.649 11.144-19.414 11.144-23.063 0l-17.399-53.135c-1.54-4.704-2.325-9.622-2.325-14.571z" fill="#365e7d"/></g><path d="m363.815 70.408h62.511v34.55h-62.511z" fill="#eab14d"/></g></g><g><g><path d="m321.513 298.625v-85.249c0-4.628-2.469-8.905-6.477-11.219l-73.828-42.625c-4.008-2.314-8.947-2.314-12.955 0l-73.828 42.625c-4.008 2.314-6.477 6.591-6.477 11.219v85.249c0 4.628 2.469 8.905 6.477 11.219l73.828 42.625c4.008 2.314 8.947 2.314 12.955 0l73.828-42.625c4.007-2.314 6.477-6.591 6.477-11.219z" fill="#bed8fb"/><path d="m234.73 256 85.047-49.102c-1.118-1.937-2.738-3.585-4.742-4.742l-73.828-42.625c-4.008-2.314-8.947-2.314-12.955 0l-73.828 42.625c-2.004 1.157-3.624 2.805-4.742 4.742z" fill="#9dc6fb"/></g></g></g><g><path d="m474.049 80.183h-40.223v-41.428c0-21.369-17.386-38.755-38.756-38.755s-38.756 17.386-38.756 38.755v41.428h-251.742v-15.887c0-11.009-8.957-19.966-19.966-19.966h-28.77c-23.905 0-43.354 19.448-43.354 43.354v336.58.005s0 .003 0 .005c0 23.93 19.469 43.398 43.398 43.398h310.442l10.087 30.805c2.692 8.214 10.016 13.523 18.661 13.523s15.97-5.309 18.659-13.524l10.087-30.806h50.232c14.043 0 25.468-11.425 25.468-25.468v-336.551c.001-14.043-11.424-25.468-25.467-25.468zm-102.735 340.753v-308.478h16.256v308.477h-16.256zm0-323.478v-19.55h47.512v19.55zm23.756-82.458c13.099 0 23.756 10.657 23.756 23.755v24.153h-47.512v-24.153c0-13.098 10.658-23.755 23.756-23.755zm-367.587 72.683c0-15.634 12.72-28.354 28.354-28.354h28.77c2.738 0 4.966 2.228 4.966 4.966v311.647c0 2.738-2.228 4.966-4.966 4.966h-28.77c-10.831 0-20.747 3.993-28.354 10.583zm28.399 364.987c-15.659 0-28.398-12.739-28.398-28.398v-.009c0-15.634 12.72-28.354 28.354-28.354h28.77c11.009 0 19.966-8.957 19.966-19.966v-280.76h251.742v333.252c0 5.75.907 11.438 2.697 16.905l2.4 7.33zm343.592 41.139c-.943 2.88-3.394 3.191-4.403 3.191s-3.46-.311-4.403-3.192c-.878-2.647-17.948-54.362-18.631-57.873h46.068c-.678 3.482-17.706 55.082-18.631 57.874zm85.043-51.606c0 5.772-4.696 10.468-10.468 10.468h-45.32l2.4-7.33c1.79-5.467 2.697-11.154 2.697-16.905v-249.686c0-4.142-3.357-7.5-7.5-7.5s-7.5 3.358-7.5 7.5v242.185h-16.256v-308.477h16.256v31.232c0 4.142 3.357 7.5 7.5 7.5s7.5-3.358 7.5-7.5v-48.507h40.223c5.771 0 10.468 4.696 10.468 10.468z"/><path d="m318.785 195.661-73.828-42.625c-6.308-3.642-14.146-3.642-20.455 0l-73.828 42.625c-6.285 3.628-10.228 10.404-10.228 17.714v27.077c0 4.142 3.357 7.5 7.5 7.5s7.5-3.358 7.5-7.5v-21.567l71.783 41.444v82.888l-69.056-39.87c-1.683-.971-2.728-2.782-2.728-4.724v-23.112c0-4.142-3.357-7.5-7.5-7.5s-7.5 3.358-7.5 7.5v23.112c0 7.284 3.919 14.072 10.228 17.714l73.829 42.625c6.308 3.642 14.145 3.641 20.454 0l73.827-42.625c6.31-3.642 10.229-10.43 10.229-17.715v-85.249c.001-7.278-3.917-14.07-10.227-17.712zm-86.784-29.634c1.684-.972 3.774-.971 5.456 0l69.056 39.87-71.783 41.444-71.783-41.444zm79.284 137.322-69.056 39.87v-82.889l71.783-41.444v79.738c.001 1.943-1.044 3.753-2.727 4.725z"/></g></g></svg>